<?xml version="1.0" standalone="no"?>
<!DOCTYPE svg PUBLIC "-//W3C//DTD SVG 20010904//EN"
 "http://www.w3.org/TR/2001/REC-SVG-20010904/DTD/svg10.dtd">
<svg version="1.0" xmlns="http://www.w3.org/2000/svg"
 width="700.000000pt" height="700.000000pt" viewBox="0 0 700.000000 700.000000"
 preserveAspectRatio="xMidYMid meet">
<metadata>
Created by potrace 1.11, written by Peter Selinger 2001-2013
</metadata>
<g transform="translate(0.000000,700.000000) scale(0.100000,-0.100000)"
fill="#000000" stroke="none">
<path d="M3215 6989 c-149 -16 -181 -19 -207 -24 -16 -3 -40 -7 -55 -10 -16
-3 -48 -7 -73 -11 -25 -3 -63 -10 -85 -16 -22 -5 -49 -12 -60 -14 -70 -13
-210 -52 -330 -93 -202 -69 -247 -86 -370 -144 -812 -382 -1416 -1008 -1762
-1827 -90 -212 -173 -485 -209 -690 -17 -94 -25 -141 -29 -180 -4 -25 -8 -58
-10 -75 -20 -134 -27 -514 -13 -690 7 -81 21 -195 33 -266 3 -14 7 -41 9 -60
3 -19 14 -76 26 -128 153 -684 482 -1279 975 -1762 96 -94 124 -119 195 -177
25 -20 47 -39 50 -42 14 -14 103 -82 162 -124 60 -42 70 -46 90 -35 12 6 169
100 348 207 179 107 339 203 357 213 17 10 50 29 72 43 22 15 43 26 45 26 2 0
59 34 126 75 67 41 123 75 125 75 2 0 328 194 385 229 35 22 297 178 334 200
23 13 178 106 346 206 168 100 495 296 728 435 277 164 440 268 472 298 63 62
104 131 128 217 66 240 -67 488 -308 572 -47 17 -201 23 -254 11 -53 -13 -168
-74 -381 -201 -115 -69 -210 -125 -211 -124 -4 4 -493 827 -503 846 -10 17 20
37 322 217 182 109 373 219 424 245 88 45 273 109 358 125 22 4 47 9 55 10
137 28 378 23 542 -11 162 -34 411 -134 479 -191 8 -8 19 -14 23 -14 15 0 154
-111 227 -182 155 -150 255 -301 354 -531 17 -39 53 -160 62 -207 2 -14 8 -44
14 -67 28 -128 28 -387 -1 -518 -5 -22 -11 -52 -14 -67 -12 -70 -62 -213 -107
-306 -43 -90 -122 -222 -154 -258 -5 -7 -24 -29 -41 -50 -117 -144 -278 -273
-502 -402 -35 -20 -71 -42 -80 -47 -59 -36 -321 -192 -337 -201 -11 -6 -155
-92 -320 -191 -500 -299 -999 -598 -1010 -603 -19 -10 -560 -332 -595 -355
-19 -12 -117 -71 -218 -130 -100 -60 -181 -110 -179 -112 7 -6 282 -59 355
-68 26 -3 56 -8 67 -10 95 -19 537 -27 715 -12 435 37 876 163 1275 364 869
438 1513 1213 1785 2148 31 107 35 121 45 168 2 12 11 54 19 92 24 109 42 224
61 390 10 87 13 485 4 590 -12 142 -25 257 -33 284 -3 9 -8 36 -11 61 -17 120
-74 347 -128 505 -226 668 -648 1252 -1210 1678 -78 59 -91 66 -109 56 -12 -7
-62 -36 -112 -67 -50 -30 -100 -60 -111 -66 -11 -6 -118 -69 -238 -141 -119
-71 -231 -138 -247 -147 -17 -10 -74 -44 -127 -76 -97 -58 -803 -479 -1308
-780 -143 -85 -288 -172 -323 -193 -35 -22 -65 -39 -68 -39 -3 0 -17 -9 -32
-19 -15 -11 -200 -122 -411 -247 -424 -252 -471 -288 -528 -404 -17 -36 -34
-78 -38 -95 -12 -59 -13 -151 -3 -200 5 -27 10 -55 12 -60 7 -39 70 -138 116
-185 100 -100 207 -141 353 -136 122 4 151 17 442 190 l240 143 69 -116 c191
-321 381 -640 398 -669 10 -18 25 -44 33 -56 17 -26 15 -28 -67 -74 -18 -11
-148 -88 -288 -172 -346 -208 -518 -294 -650 -325 -175 -42 -240 -50 -395 -49
-164 0 -211 6 -375 46 -236 58 -471 191 -651 368 -126 124 -190 207 -272 355
-259 470 -238 1049 57 1510 50 79 64 97 141 184 65 74 131 133 222 202 50 38
926 570 967 588 5 2 140 82 300 178 159 96 308 185 331 198 22 12 254 150 515
306 261 157 584 349 717 429 133 79 241 146 239 148 -7 6 -210 52 -301 67 -49
8 -100 17 -112 19 -12 3 -54 8 -95 11 -40 4 -86 9 -103 12 -50 8 -505 9 -580
2z"/>
</g>
</svg>
